<svg xmlns="http://www.w3.org/2000/svg" width="22" height="22" viewBox="0 0 22 22" fill="none">
<path d="M17.7525 1.69423H16.9319V0.86389C16.9319 0.389469 16.5473 0.00489807 16.0729 0.00489807C15.5985 0.00489807 15.2139 0.389469 15.2139 0.86389V1.69423H6.78604V0.86389C6.78604 0.389469 6.40147 0.00489807 5.92705 0.00489807C5.45263 0.00489807 5.06806 0.389469 5.06806 0.86389V1.69423H4.2475C1.90542 1.69423 0 3.59965 0 5.94169V17.7476C0 20.0897 1.90542 21.9951 4.2475 21.9951H17.7525C20.0946 21.9951 22 20.0897 22 17.7476V5.94169C22 3.59965 20.0946 1.69423 17.7525 1.69423ZM4.2475 3.41222H5.06806V5.08725C5.06806 5.56167 5.45263 5.94625 5.92705 5.94625C6.40147 5.94625 6.78604 5.56167 6.78604 5.08725V3.41222H15.214V5.08725C15.214 5.56167 15.5985 5.94625 16.073 5.94625C16.5474 5.94625 16.9319 5.56167 16.9319 5.08725V3.41222H17.7525C19.1473 3.41222 20.282 4.54695 20.282 5.94169V6.76229H1.71798V5.94169C1.71798 4.54695 2.85271 3.41222 4.2475 3.41222ZM17.7525 20.2771H4.2475C2.85271 20.2771 1.71798 19.1424 1.71798 17.7476V8.48027H20.282V17.7476C20.282 19.1424 19.1473 20.2771 17.7525 20.2771ZM7.63073 11.859C7.63073 12.3334 7.24616 12.718 6.77174 12.718H5.0824C4.60798 12.718 4.22341 12.3334 4.22341 11.859C4.22341 11.3846 4.60798 11 5.0824 11H6.77174C7.24612 11 7.63073 11.3846 7.63073 11.859ZM17.7766 11.859C17.7766 12.3334 17.3921 12.718 16.9176 12.718H15.2283C14.7539 12.718 14.3693 12.3334 14.3693 11.859C14.3693 11.3846 14.7539 11 15.2283 11H16.9176C17.392 11 17.7766 11.3846 17.7766 11.859ZM12.6988 11.859C12.6988 12.3334 12.3142 12.718 11.8398 12.718H10.1505C9.67603 12.718 9.29146 12.3334 9.29146 11.859C9.29146 11.3846 9.67603 11 10.1505 11H11.8398C12.3142 11 12.6988 11.3846 12.6988 11.859ZM7.63073 16.927C7.63073 17.4015 7.24616 17.786 6.77174 17.786H5.0824C4.60798 17.786 4.22341 17.4015 4.22341 16.927C4.22341 16.4526 4.60798 16.068 5.0824 16.068H6.77174C7.24612 16.068 7.63073 16.4526 7.63073 16.927ZM17.7766 16.927C17.7766 17.4015 17.3921 17.786 16.9176 17.786H15.2283C14.7539 17.786 14.3693 17.4015 14.3693 16.927C14.3693 16.4526 14.7539 16.068 15.2283 16.068H16.9176C17.392 16.068 17.7766 16.4526 17.7766 16.927ZM12.6988 16.927C12.6988 17.4015 12.3142 17.786 11.8398 17.786H10.1505C9.67603 17.786 9.29146 17.4015 9.29146 16.927C9.29146 16.4526 9.67603 16.068 10.1505 16.068H11.8398C12.3142 16.068 12.6988 16.4526 12.6988 16.927Z" fill="#6F767E"/>
</svg>