<svg width="20" height="16" viewBox="0 0 20 16" fill="none" xmlns="http://www.w3.org/2000/svg">
<path d="M14.8164 9.47652C15.2163 9.09563 15.2317 8.46265 14.8508 8.06272C14.47 7.66279 13.837 7.64735 13.4371 8.02824L14.8164 9.47652ZM10.1767 12.5143L9.48705 13.2384C9.87326 13.6062 10.4802 13.6062 10.8664 13.2384L10.1767 12.5143ZM6.91636 8.02824C6.51643 7.64735 5.88346 7.66279 5.50257 8.06272C5.12169 8.46265 5.13712 9.09563 5.53705 9.47652L6.91636 8.02824ZM13.4371 8.02824L9.48705 11.7901L10.8664 13.2384L14.8164 9.47652L13.4371 8.02824ZM10.8664 11.7901L6.91636 8.02824L5.53705 9.47652L9.48705 13.2384L10.8664 11.7901Z" fill="#FF6A55"/>
<path d="M10.1768 3.48571L10.1768 12.5143" stroke="#FF6A55" stroke-width="2" stroke-linecap="round"/>
</svg>
