<svg width="22" height="22" viewBox="0 0 22 22" fill="none" xmlns="http://www.w3.org/2000/svg">
    <path d="M3.83481 18.6839C4.28435 18.8452 4.77467 18.6091 4.93391 18.1652L7.19944 11.8492C7.41926 11.2363 8.21315 11.0813 8.6477 11.5651L8.95639 11.9088C10.2221 13.318 12.5275 12.9274 13.2553 11.175L15.2132 6.46143C15.4558 5.87727 16.2268 5.74562 16.6488 6.21982L17.233 6.87625C17.5485 7.23079 18.0917 7.26246 18.4463 6.94694C18.8008 6.63142 18.8325 6.08821 18.517 5.73367L17.9328 5.07724C16.6701 3.65841 14.3558 4.04491 13.6259 5.80216L11.6681 10.5158C11.4252 11.1005 10.6585 11.2318 10.2351 10.7603L9.9264 10.4166C8.62325 8.96561 6.2411 9.43032 5.58162 11.2689L3.31609 17.5849C3.15582 18.0316 3.38807 18.5237 3.83481 18.6839Z"
          fill="#6F767E"/>
    <path d="M21.1406 20.2812H2.57812C2.10427 20.2812 1.71875 19.8957 1.71875 19.4219V0.859375C1.71875 0.384742 1.33401 0 0.859375 0C0.384742 0 0 0.384742 0 0.859375V19.4219C0 20.8435 1.15655 22 2.57812 22H21.1406C21.6153 22 22 21.6153 22 21.1406C22 20.666 21.6153 20.2812 21.1406 20.2812Z"
          fill="#6F767E"/>
</svg>
