<svg width="145" height="60" viewBox="0 0 145 60" fill="none" xmlns="http://www.w3.org/2000/svg">
<g clip-path="url(#clip0_1953_18695)">
<path fill-rule="evenodd" clip-rule="evenodd" d="M23.4739 14.3347C22.4958 14.5064 23.3108 14.5922 22.3328 14.6781C20.5396 14.9356 19.0725 15.3648 17.8499 15.8798L17.1164 16.309C13.7746 18.1115 16.6273 19.5708 14.9972 20.4291C13.3671 21.3733 11.0849 22.1459 11.8999 23.5193C12.226 24.0343 12.4705 24.206 12.226 24.721C11.4109 26.7811 8.63968 25.8369 9.29173 27.8969C9.45475 28.4978 9.21023 28.0686 8.47667 28.4978C7.90612 28.8412 7.33558 29.0128 7.00955 29.5279C5.54244 32.2746 0.652048 33.648 11.2479 30.1287C12.389 29.5278 15.8123 26.8669 16.4643 25.8369C18.991 26.4377 21.5177 25.1502 24.2074 23.6051C26.0006 22.5751 28.1197 24.5493 28.6088 24.4635C28.9348 24.206 27.0601 20.7725 27.4677 20.6008C27.4677 20.6008 23.7184 14.3347 23.4739 14.3347Z" fill="#33383F"/>
<path fill-rule="evenodd" clip-rule="evenodd" d="M0.489038 29.3562V30.9013C0.489038 31.5021 0.489038 32.0172 0.570545 32.618C0.652051 33.2189 0.652051 33.7339 0.733558 34.2489L0.978077 35.794C1.2226 36.824 1.38561 37.7682 1.71163 38.7124C1.79314 38.8841 1.87465 39.2275 1.95615 39.3991L2.44519 40.8584C2.5267 41.1159 2.60821 41.2875 2.68971 41.5451L3.8308 44.0343C3.91231 44.206 4.07532 44.3777 4.15683 44.6352L5.21641 46.3519C5.37943 46.5236 5.46093 46.6953 5.54244 46.8669C5.86846 47.2961 6.11298 47.7253 6.52052 48.1545L7.09106 48.927C7.25407 49.0987 7.41709 49.2704 7.49859 49.4421C7.74311 49.7854 8.06914 50.0429 8.39516 50.3863C8.63968 50.6438 9.04722 51.073 9.29174 51.3305L10.6773 52.618C12.7965 54.4206 13.9376 55.1073 16.3828 56.4807L17.9314 57.2532C18.0944 57.339 18.339 57.4249 18.5835 57.5107L20.5396 58.2833C21.4362 58.6266 22.4143 58.8841 23.3924 59.0558C24.3704 59.2275 25.43 59.485 26.4896 59.5708L27.7122 59.6566C27.8752 59.6566 27.9567 59.7425 28.1197 59.7425H30.8094C31.38 59.7425 31.9505 59.6566 32.5211 59.5708C32.8471 59.5708 33.0916 59.485 33.3361 59.485C34.0697 59.3991 34.8848 59.2275 35.6183 59.0558C35.7813 59.0558 35.8628 59.0558 36.0259 58.9699L37.0854 58.7124C37.33 58.6266 37.5745 58.6266 37.819 58.5408L39.8567 57.8541C41.6498 57.1674 43.3614 56.309 44.9916 55.279L46.8662 53.9914C47.0292 53.8197 47.1922 53.7339 47.3553 53.5622C47.5183 53.3906 47.6813 53.3047 47.8443 53.133C48.0073 52.9614 48.1703 52.8755 48.3333 52.7039C48.4148 52.618 48.4963 52.618 48.5779 52.5322C48.6594 52.4463 48.7409 52.4463 48.8224 52.3605C48.9854 52.1888 49.1484 52.103 49.3114 51.9313C49.4744 51.8455 49.6374 51.6738 49.7189 51.5021C50.7785 50.3863 51.8381 49.2704 52.7347 48.0687C53.7943 46.6094 54.6908 45.1502 55.5059 43.5193L56.0764 42.3176C56.484 41.4592 56.81 40.6009 57.0545 39.6566C58.7662 34.5064 59.0107 29.0129 57.8696 23.6051C57.7881 23.3476 57.7881 23.176 57.7066 22.9184C57.6251 22.6609 57.6251 22.4034 57.5436 22.1459L56.8915 20.0858C56.7285 19.5708 56.321 18.6266 56.0764 18.1116L55.5059 16.9099C55.4244 16.6524 55.3429 16.5665 55.1799 16.309L54.6093 15.0215C54.4463 14.7639 54.3648 14.5923 54.2833 14.4206C53.7943 13.6481 53.2237 12.7039 52.6532 12.0172C51.9196 11.073 51.1861 10.2146 50.2895 9.35622C49.9635 9.01287 49.7189 8.66952 49.3929 8.41201L48.9039 7.89699C48.8224 7.81115 48.7409 7.81115 48.6594 7.72531C48.5779 7.63948 48.4963 7.55364 48.4148 7.4678L47.1922 6.43776C46.6217 5.92274 45.9696 5.57939 45.3176 5.15021L44.747 4.80686C42.7094 3.51931 40.1827 2.31759 37.819 1.71673C33.9882 0.600852 32.1951 0.515015 28.1197 0.515015L27.3047 0.600852C27.0601 0.600852 26.7341 0.686688 26.4896 0.686688C26.0006 0.772525 25.43 0.858362 24.8595 0.944199C24.3704 1.03004 23.8814 1.11587 23.3108 1.20171C21.7622 1.45922 19.317 2.31759 17.8499 3.00429C17.6054 3.09012 17.4424 3.17596 17.1979 3.2618C15.5677 3.94849 14.1006 4.97853 12.6335 6.00858C12.063 6.35192 10.8404 7.29613 10.3513 7.81115C9.53625 8.58368 8.55818 9.44205 7.82462 10.3004C7.09106 11.1588 6.43901 11.9313 5.78696 12.8755C5.37943 13.3905 4.97189 13.9914 4.72737 14.5064L4.48285 14.9356C3.99382 15.794 3.58628 16.6524 3.09724 17.5107C2.03766 19.6566 1.3041 22.0601 0.896571 24.4635C0.815064 24.721 0.815064 24.9785 0.733558 25.236C0.570545 26.0944 0.570545 26.8669 0.407532 27.7253C0.489038 28.2403 0.489038 28.7554 0.489038 29.3562ZM1.95615 30.1287C1.95615 29.0129 2.03766 27.8111 2.11917 26.8669C2.20067 26.3519 2.28218 25.8369 2.36369 25.3219L2.77122 23.176C2.85273 22.9184 2.85273 22.7468 2.93423 22.4893L3.34176 21.2017C3.58628 20.3433 3.99382 19.485 4.31984 18.6266L4.97189 17.1674C5.13491 16.824 5.37943 16.3948 5.62395 16.0515C5.70545 15.9657 5.70545 15.8798 5.78696 15.794C5.86846 15.6223 6.03148 15.4506 6.11298 15.279C6.60202 14.5923 6.92805 13.9914 7.49859 13.2189L8.47667 11.9313C8.96571 11.3305 9.53625 10.7296 10.1068 10.1287L10.5143 9.7854L10.7589 9.52789C11.3294 8.92703 11.9814 8.41201 12.6335 7.89699C13.2856 7.38197 13.9376 6.95278 14.6712 6.43776C14.8342 6.35192 14.9972 6.26609 15.1602 6.09441L16.2198 5.49356C16.3828 5.40772 16.6273 5.32188 16.7903 5.15021C17.1979 4.8927 17.6054 4.80686 18.0129 4.54935C19.2355 3.94849 20.4581 3.51931 21.7622 3.09012C22.0067 3.00428 22.2513 3.00429 22.4958 2.91845C23.8814 2.48926 25.43 2.23175 26.8971 2.14592C27.1417 2.14592 27.4677 2.14592 27.7122 2.06008C27.9567 2.06008 29.9129 1.97424 30.2389 2.06008C30.6464 2.14592 31.217 2.06008 31.869 2.14592C32.6841 2.23175 33.4176 2.23175 34.2327 2.40343L36.3519 2.83261C37.0039 3.00428 37.656 3.17596 38.308 3.43347C38.5526 3.51931 38.7156 3.60514 38.9601 3.69098C39.9382 4.03433 41.3238 4.63519 42.2203 5.15021C42.3019 5.15021 42.3834 5.23604 42.4649 5.23604C42.6279 5.32188 42.8724 5.49356 43.0354 5.57939C43.1984 5.66523 43.3614 5.75107 43.606 5.92274C44.5025 6.43776 45.3176 7.03862 46.2142 7.63948C47.5998 8.66952 48.9039 9.87124 50.045 11.1588L51.4306 12.7897C51.5936 12.9614 51.6751 13.133 51.7566 13.3047C51.9196 13.4764 52.0011 13.6481 52.1641 13.8197C53.3052 15.6223 53.7128 16.309 54.6908 18.1974L55.1799 19.3991C55.5059 20.2575 55.8319 21.1159 56.0764 21.9742C56.158 22.1459 56.2395 22.4034 56.2395 22.6609C56.484 23.3476 56.5655 24.1202 56.7285 24.8069C57.2175 27.1245 57.299 30.2146 57.136 32.618C56.973 34.3348 56.7285 36.1373 56.2395 37.7682C55.7504 39.485 55.0984 41.2017 54.3648 42.8326L53.7128 43.7768C53.4682 44.3777 53.0607 44.8927 52.7347 45.4077C52.1641 46.2661 51.5936 47.1245 50.9415 47.897L48.4963 50.6438C47.1107 52.0172 44.747 53.8197 43.1169 54.6781C42.0573 55.279 40.7532 55.9657 39.6936 56.3948C39.4491 56.4807 39.2861 56.5665 39.1231 56.6524C37.656 57.2532 35.9444 57.6824 34.3957 57.9399C31.2985 58.4549 27.9567 58.4549 24.8595 57.9399C23.9629 57.7682 22.9848 57.5966 22.0883 57.2532L20.7841 56.824C20.0506 56.5665 19.2355 56.309 18.5835 55.9657L17.1164 55.279C17.0348 55.1931 16.9533 55.1931 16.8718 55.1073C15.4862 54.3348 14.1006 53.5622 12.878 52.5322L10.8404 50.8154C10.8404 50.8154 10.8404 50.8154 10.7589 50.7296C10.3513 50.3863 10.0253 49.9571 9.69927 49.6137L8.8842 48.6695C8.23215 47.9828 7.17257 46.5236 6.60202 45.6652C5.86846 44.6352 5.21641 43.4335 4.72737 42.2318C4.64587 42.0601 4.56436 41.8026 4.48285 41.6309C3.58628 39.7425 2.68971 36.9957 2.44519 34.9356C2.11917 33.3906 1.95615 31.8455 1.95615 30.1287Z" fill="#33383F"/>
<path fill-rule="evenodd" clip-rule="evenodd" d="M26.6526 20C27.0602 20.0859 26.3266 20.6867 26.4896 20.7726C26.8971 20.9442 27.0601 21.5451 26.9786 22.0601C27.1417 22.3176 27.4677 22.4035 27.4677 22.8326C27.4677 23.3477 27.7937 23.7768 27.3862 23.9485C27.3047 25.4077 27.4677 27.1245 28.0382 27.6395C28.2012 27.8112 28.3643 27.897 28.3643 28.0687L26.2451 28.3262C25.593 28.412 24.941 28.6695 24.4519 28.9271C20.6211 30.9013 19.2355 33.5622 18.665 37.4249C18.5835 37.8541 18.502 38.2833 18.502 38.7125C18.339 39.5708 18.502 39.3992 18.0944 39.9142C18.0129 40 18.0129 40.0859 17.9314 40.0859C17.2794 40.8584 17.5239 40.4292 16.9533 41.4592C16.6273 42.1459 16.2198 42.661 15.8938 43.3477C15.4047 44.3777 14.9972 45.3219 14.4266 46.2661C14.1821 46.6953 13.9376 47.2103 13.6931 47.7253C13.6116 47.897 13.5301 48.0687 13.5301 48.2404C13.3671 48.7554 13.3671 49.6138 13.6116 50.1288C13.7746 50.3863 13.6931 50.4721 13.6116 50.7296C13.5301 51.1588 13.4486 51.588 13.4486 52.103C13.6116 52.103 13.8561 52.3605 14.0191 52.4464C14.3451 52.618 14.6712 52.9614 15.0787 53.1331C15.2417 53.2189 15.6492 53.2189 15.8938 53.2189C16.0568 52.3605 16.3013 52.8756 15.8123 51.6738L15.1602 50.2146C14.9157 50.1288 14.6712 49.7854 14.6712 49.6138C14.5082 49.0987 14.6712 48.3262 14.8342 47.8112C14.9157 47.6395 14.9157 47.5537 14.9972 47.4678C15.0787 47.2962 15.0787 47.2103 15.1602 47.1245L15.8938 45.7511C16.0568 45.4077 16.2198 45.3219 16.5458 45.0644C16.6273 44.9786 16.6273 44.9786 16.7088 44.8927C17.3609 44.1202 17.7684 43.176 18.4205 42.4035C18.7465 42.0601 19.154 41.6309 19.5616 41.3734C19.8876 41.2017 20.1321 40.8584 20.5396 40.7725C22.1698 40.6009 23.3924 40.4292 24.8595 39.8283C25.9191 39.3992 27.2232 38.6266 28.0382 37.7683C28.3643 37.4249 28.7718 37.0816 29.0163 36.7382C29.0978 36.6524 29.1793 36.5665 29.2608 36.4807C29.3423 36.3949 29.4238 36.2232 29.5053 36.1374C29.6684 36.2232 30.6464 36.2232 30.891 36.2232L32.8471 36.4807C33.0916 36.5665 33.2546 36.5665 33.4992 36.5665C35.2923 36.8241 36.7594 37.4249 38.3895 37.9399C38.7971 38.0258 39.2046 38.2833 39.5306 38.3691C39.4491 38.1974 39.3676 38.0258 39.2861 37.8541C39.2046 37.6824 39.1231 37.5107 38.9601 37.3391L37.0854 34.3348C37.0039 34.1631 36.9224 33.9914 36.7594 33.8198L34.5587 30.3004C34.4772 30.1288 34.3957 29.9571 34.2327 29.7854C34.1512 29.6138 34.0697 29.4421 33.9067 29.2704C33.2546 28.2404 32.6026 27.2962 32.032 26.2661C31.9505 26.0944 31.869 25.9228 31.706 25.7511L28.8533 21.2876C28.7718 21.1159 28.6903 20.9442 28.5273 20.7726L25.6745 16.309C24.5334 14.4206 23.3109 12.618 22.1698 10.8155L21.1917 9.35624C20.7842 8.75538 19.5616 6.86697 19.317 6.35195C19.48 6.26611 19.48 6.26611 19.6431 6.18027C19.5616 5.83693 18.1759 3.691 18.0944 3.34766C17.3609 3.43349 18.9095 5.66525 19.2355 6.35195C18.828 6.60946 18.828 6.86697 18.991 7.38199C19.2355 8.15452 19.9691 8.3262 20.4581 8.75538C20.7842 9.01289 20.8657 9.2704 21.0287 9.61375C21.1102 9.78542 21.1917 9.9571 21.2732 10.1288C21.3547 10.3004 21.4362 10.4721 21.5177 10.6438C21.6807 10.9013 23.2293 15.279 23.3924 15.4507L24.615 17.5966C24.8595 17.8541 25.43 18.1974 25.756 18.5408L26.6526 20Z" fill="#33383F"/>
<path fill-rule="evenodd" clip-rule="evenodd" d="M23.0663 33.0472C22.9848 33.133 22.9033 33.2189 22.9033 33.3905L23.1478 33.3047L23.0663 33.0472ZM22.1698 31.3304C21.3547 31.4163 20.5396 31.588 19.6431 31.6738C18.9095 31.7596 18.339 31.8455 17.6054 31.9313C16.3828 32.103 15.2417 32.4463 14.4266 32.8755L13.8561 33.2189C11.4109 34.6781 13.5301 35.794 12.3075 36.5665C11.0849 37.2532 9.53625 37.9399 10.1068 39.0558C10.3513 39.485 10.5143 39.5708 10.3513 40C9.78077 41.6309 7.74311 40.9442 8.23215 42.5751C8.39516 43.0043 8.63968 43.1759 8.06914 43.5193C7.6616 43.7768 7.41708 43.9485 7.25407 44.3777C7.09106 44.721 7.00955 45.1502 7.17257 45.4935C7.33558 45.751 7.49859 46.3519 7.90612 46.5236C7.90612 45.4077 8.47667 45.236 9.69927 44.4635C11.8999 43.0901 10.5958 43.1759 10.5143 42.3176C10.5143 41.9742 10.7588 41.8026 11.1664 41.545L12.226 40.9442C14.5897 39.6566 12.4705 40.3433 13.3671 38.7983C13.6116 38.3691 14.0191 38.1974 14.7527 37.9399C15.4862 37.6824 16.5458 37.1674 17.0348 36.824C18.0129 36.0515 16.9533 34.9356 17.7684 34.0772L18.665 33.3905C19.48 32.7897 20.8657 32.3605 22.4143 32.1888C22.6588 32.1888 22.9033 32.103 23.0663 32.103V31.9313H22.2513L22.1698 31.3304Z" fill="#33383F"/>
<path fill-rule="evenodd" clip-rule="evenodd" d="M21.0287 31.5022L20.4581 31.588C19.7246 31.6739 19.154 31.7597 18.4205 31.8455C17.1979 32.0172 16.0568 32.3606 15.1602 32.7898L14.6712 33.0473C12.226 34.5065 14.3451 35.6224 13.1225 36.3949C11.8999 37.0816 10.3513 37.7683 10.9219 38.8842C11.1664 39.3134 11.3294 39.3992 11.1664 39.8284C10.5958 41.4593 8.55818 40.7726 9.04722 42.4035C9.21023 42.8327 9.45475 43.0043 8.88421 43.3477C8.47668 43.6052 8.23216 43.7769 8.06914 44.2061C8.06914 44.6352 7.98764 45.1503 8.15065 45.4936C8.23216 45.7511 8.39517 46.2661 8.8027 46.4378C8.8027 45.3219 9.37325 45.1503 10.5958 44.3777C12.7965 43.0043 11.4924 43.0902 11.4109 42.2318C11.4109 41.8885 11.6554 41.7168 12.063 41.4593L13.1225 40.8584C15.4862 39.5709 13.3671 40.2576 14.2636 38.7125C14.5082 38.2833 14.9157 38.1116 15.6492 37.8541C16.3828 37.5966 17.4424 37.0816 17.9314 36.7382C18.9095 35.9657 17.8499 34.8498 18.665 33.9915L19.5616 33.3048C19.8061 33.1331 20.0506 32.9614 20.3766 32.7898C20.2136 32.1889 20.5396 31.6739 21.0287 31.5022Z" fill="#33383F"/>
<path fill-rule="evenodd" clip-rule="evenodd" d="M32.5211 21.03C32.4396 20.4292 32.032 20.7725 32.4396 19.5708C32.5211 19.3133 32.5211 19.0558 32.6841 18.8841C33.1731 19.2275 33.2546 19.5708 33.2546 20C33.1731 20.1717 32.7656 20.9442 32.5211 21.03ZM46.7847 26.6094C47.3553 26.5236 48.1703 26.4378 48.3333 26.4378C48.3333 26.0944 47.0292 25.5794 46.8662 25.3219C52.3272 24.8927 46.7032 24.4635 46.7847 23.9485C46.7032 23.8627 46.6217 23.691 46.4587 23.4335C45.9696 22.6609 45.1546 21.8026 44.421 21.2017C43.932 20.8584 43.4429 20.515 42.8724 20.1717C41.9758 19.7425 40.9162 19.485 39.7752 19.485C38.3895 19.485 36.7594 19.9142 36.0259 20.515C35.6998 20.7725 34.4772 21.9742 34.2327 22.3176C34.0697 22.5751 33.8252 22.7468 33.6622 23.0043C33.4177 22.8326 33.0916 22.5751 32.9286 22.3176C33.7437 22.2318 34.6402 21.4592 35.1293 20.7725C35.4553 20.3433 35.8628 19.8283 35.8628 19.2275C35.8628 18.1116 35.0478 17.2532 34.6402 16.4807C34.4772 16.2232 34.1512 15.7082 33.9067 15.279C33.6622 15.0215 33.4992 14.7639 33.4992 14.6781C33.4177 14.5923 33.1731 14.0773 33.1731 14.0773C33.0101 13.9056 32.3581 13.3906 32.2766 13.3047C33.0916 13.3047 34.5587 12.1888 34.7218 11.6738C35.0478 10.8154 34.6402 9.87124 34.2327 9.44206L33.9067 9.18455C33.7437 9.09871 33.6622 9.01287 33.4992 9.01287C31.9505 8.41201 30.8094 9.35622 30.3204 10.7296C30.1574 11.073 30.2389 11.588 29.7499 11.588C29.0978 11.588 28.0382 11.1588 27.3047 10.9871C26.7341 10.8154 26.3266 10.9013 25.6745 10.6438C25.43 10.5579 25.43 10.5579 25.1855 10.4721C24.8595 10.3863 24.615 10.1288 24.2074 10.1288C23.1478 10.1288 23.7184 10.3863 22.4143 9.35622C21.6807 8.8412 21.3547 8.75536 21.1917 7.89699C21.1917 7.46781 21.1917 7.55365 20.9472 7.29613C20.8657 7.2103 20.8657 7.2103 20.7841 7.2103C20.6211 7.03862 20.5396 6.86695 20.3766 6.69528C20.2951 6.60944 19.7246 6.43777 19.6431 6.35193C19.6431 6.5236 19.6431 6.5236 19.8061 6.60944C20.3766 7.46781 20.8657 8.32618 21.4362 9.18455L22.6588 11.073C22.9033 11.4163 23.0663 11.7597 23.2293 12.0172L25.0225 14.8498C25.267 15.1931 25.43 15.4506 25.593 15.794L31.054 24.3777C32.1135 25.9227 33.0101 27.5536 34.0697 29.0987C35.1293 30.7296 37.493 34.5064 39.8567 32.7897C40.1827 32.618 40.5902 31.7597 40.8347 31.5021C40.9162 31.4163 41.4053 30.4721 41.4053 30.3863C41.4053 29.8712 40.8347 28.7554 40.8347 28.1545C40.8347 27.897 40.9162 27.897 40.9162 27.6395C40.9978 27.7253 41.0793 27.7253 41.2423 27.7253C41.3238 27.8112 41.4053 27.8112 41.4868 27.897C41.6498 27.9828 41.9758 28.1545 42.0573 28.1545C42.0573 28.7554 42.1388 29.2704 42.6279 29.6996C42.9539 29.9571 43.3614 29.8712 43.606 29.6996L44.258 29.2704C44.747 28.927 44.7471 28.3262 45.1546 27.9828C45.4806 27.7253 46.0512 27.2961 46.2142 27.1245C46.4587 27.2103 46.6217 26.7811 46.7847 26.6094ZM42.5464 27.1245C42.5464 27.7253 42.7094 27.1245 42.3019 27.897C42.1388 27.8112 41.1608 27.382 41.1608 27.2961C41.1608 26.6094 41.9758 24.8069 42.7909 26.0944C42.7909 26.2661 42.7094 26.4378 42.6279 26.5236C42.5464 26.6953 42.5464 26.867 42.5464 27.1245Z" fill="#33383F"/>
<path fill-rule="evenodd" clip-rule="evenodd" d="M40.3457 39.1416C40.5087 39.1416 40.5902 39.3133 40.6717 39.3991C40.8347 39.4849 40.9162 39.5708 40.9977 39.6566C41.2423 39.8283 41.4053 40 41.5683 40.2575C41.8128 40.515 41.8943 40.6867 42.1388 40.8583C43.0354 41.4592 43.1984 41.545 43.6875 42.1459C44.0135 41.8025 44.258 42.06 44.421 42.6609C44.5025 42.8326 44.5025 43.3476 44.584 43.5193C44.8286 43.9485 45.2361 43.7768 45.5621 44.1201C46.2957 44.3776 46.9477 44.2918 46.8662 44.1201L44.9101 41.1158C44.747 40.6867 44.584 40.6008 44.095 40.1716C43.932 40 43.8505 39.9141 43.606 39.7424L41.8943 38.0257C41.7313 37.854 41.6498 37.7682 41.4868 37.5965C41.1608 37.2532 41.4053 37.339 41.4053 36.9957C41.8128 36.9957 43.0354 36.4806 43.6875 36.3948C44.5025 36.309 44.3395 36.309 45.0731 37.0815C45.3176 37.339 45.3991 37.2532 45.8881 37.7682C45.9696 37.854 45.9696 37.854 46.0512 37.9399L47.4368 39.8283C47.6813 40.2575 47.4368 40.4291 48.0073 40.7725C47.9258 40.9442 47.7628 41.2875 47.6813 41.545C47.5998 42.06 47.7628 42.1459 48.0888 42.2317L48.9039 42.4892C49.2299 42.5751 49.4744 42.6609 49.882 42.6609C49.9635 42.3176 50.045 41.8884 49.9635 41.4592C49.7189 40.4291 48.5779 39.0558 48.0073 38.1974C47.5998 37.5965 45.4806 34.6781 45.1546 34.4206C44.747 34.1631 42.3019 34.3347 42.2203 34.0772C42.2203 33.9914 42.3019 33.648 42.3019 33.4764C42.2203 32.3605 41.4868 30.9013 41.4053 30.3862C41.2423 30.3862 41.3238 30.3862 41.2423 30.4721C41.1608 30.5579 41.1608 30.5579 41.0793 30.6437C40.6717 31.2446 40.1012 31.9313 39.3676 32.103C38.308 32.4463 37.33 32.2746 36.4334 31.6738C36.2704 31.5879 36.1889 31.5021 36.1074 31.4163C35.5368 31.0729 35.2923 30.7296 35.0478 30.5579C35.0478 30.7296 35.2108 30.9871 35.2923 31.0729C36.5964 33.133 38.145 35.5364 39.4491 37.5965C39.6121 37.7682 40.0197 38.4549 40.1012 38.6266L39.4491 38.2832C39.6121 38.3691 40.4272 39.8283 41.3238 41.4592C42.1388 42.8326 42.8724 44.4635 43.3614 45.0643C43.5245 45.236 43.4429 44.9785 43.5245 44.9785C43.769 45.0643 43.606 44.9785 43.606 44.9785C42.7909 43.6051 40.5087 40 40.3457 39.1416Z" fill="#33383F"/>
<path fill-rule="evenodd" clip-rule="evenodd" d="M16.3013 49.3562C16.5458 49.3562 16.6273 49.3562 16.9533 49.3562H17.5239C17.5239 48.4978 17.6869 47.897 17.8499 47.1244C17.9314 46.7811 18.0944 46.5236 18.1759 46.1802C18.339 45.9227 18.2574 46.0086 18.502 45.8369C18.665 45.6652 19.3985 44.6352 19.5616 44.3777C19.6431 44.2918 19.6431 44.2918 19.7246 44.206C20.6211 42.8326 23.0663 41.545 24.3704 40.8583C24.6965 40.6867 24.941 40.6008 25.1855 40.4292C25.756 40.1716 25.9191 40.0858 26.3266 39.6566L26.9786 38.9699C27.0601 38.7983 27.2232 38.7983 27.2232 38.6266C27.0601 38.6266 26.2451 39.2274 26.0006 39.3991C25.8375 39.485 25.756 39.5708 25.593 39.6566C24.2889 40.3433 23.0663 40.6867 21.5177 40.9442C20.2951 41.1159 19.9691 40.7725 18.9095 42.4034C18.0129 43.8626 17.2794 45.4077 16.7088 46.9528C16.6273 47.7253 16.3828 48.5837 16.3013 49.3562Z" fill="#33383F"/>
<path d="M35.2108 7.89697C34.5587 7.29611 33.6622 6.86693 32.6841 6.86693C31.706 6.86693 30.8094 7.29611 30.1574 7.98281C29.5053 8.6695 29.0978 9.52787 29.0978 10.5579C29.0978 11.588 29.5053 12.5322 30.1574 13.133C30.8094 13.8197 31.706 14.2489 32.6841 14.2489C33.6622 14.2489 34.5587 13.8197 35.2108 13.133C35.8628 12.4463 36.2704 11.588 36.2704 10.5579C36.2704 9.52787 35.8628 8.58367 35.2108 7.89697ZM32.6841 6.43774C33.8252 6.43774 34.8033 6.86693 35.5368 7.63946C36.2704 8.41199 36.7594 9.44204 36.7594 10.5579C36.7594 11.6738 36.2704 12.7038 35.5368 13.4764C34.8033 14.2489 33.8252 14.6781 32.6841 14.6781C31.543 14.6781 30.5649 14.2489 29.8314 13.4764C29.0978 12.7038 28.6088 11.6738 28.6088 10.5579C28.6088 9.44204 29.0978 8.41199 29.8314 7.63946C30.5649 6.86693 31.543 6.43774 32.6841 6.43774Z" fill="#33383F"/>
<path fill-rule="evenodd" clip-rule="evenodd" d="M29.5868 43.8627C30.0759 43.8627 30.5649 43.4335 30.7279 43.0901C31.054 42.5751 31.054 42.3176 31.054 41.4592C32.3581 42.1459 33.5807 40.8584 33.6622 40.515C30.9725 40.9442 30.1574 41.8884 29.3423 42.7468C28.5273 43.5193 28.3643 44.9785 28.3643 46.1802C28.3643 46.7811 28.5273 47.0386 28.5273 48.2403C28.5273 49.0129 28.5273 49.6996 28.3643 50.2146C28.0382 51.1588 26.8156 52.2747 25.3485 51.3305C25.1855 51.2446 25.1855 51.2446 25.0225 51.073C24.0444 50.3004 23.7999 49.2704 23.2293 48.5837C22.7403 47.897 22.0883 47.382 21.1917 47.382C20.4581 47.382 19.5616 47.9828 19.0725 48.4978C18.665 48.927 18.828 48.8412 18.2575 49.2704C17.5239 49.7854 17.1164 49.4421 16.4643 49.4421C16.6273 49.6996 17.8499 50.2146 18.1759 50.2146C19.154 50.3863 19.5616 49.4421 20.4581 49.1845C21.5992 48.8412 22.0883 49.7854 22.4958 50.4721C23.1478 51.5021 23.8814 52.5322 25.0225 53.133C26.0006 53.6481 27.8752 54.0772 29.1793 53.3906C30.9725 52.4463 32.1136 49.9571 32.4396 49.7854C33.1731 49.4421 33.0916 50.0429 33.7437 50.3004C33.6622 49.8712 32.3581 48.1545 32.032 47.8112L31.706 47.4678C31.4615 47.2961 31.2985 47.0386 31.054 46.8669C30.8094 46.6953 30.6464 46.6094 30.4019 46.5236C30.2389 46.4378 30.2389 46.4378 29.9944 46.4378C29.9129 46.4378 29.7499 46.4378 29.5868 46.4378C30.3204 44.9785 30.4019 44.9785 29.5868 43.8627Z" fill="#33383F"/>
<path fill-rule="evenodd" clip-rule="evenodd" d="M16.4643 51.073C16.4643 51.4164 16.3013 52.1889 16.2198 52.5322C16.4643 52.6181 17.9314 53.4764 18.0129 53.4764C18.2574 53.4764 18.2574 53.3906 18.502 53.3048C18.502 53.0473 18.5835 52.9614 18.5835 52.7039C18.5835 51.7597 18.665 51.9314 18.0944 51.1589C18.0129 50.9872 17.8499 50.9013 17.7684 50.8155C17.6869 50.7297 17.6054 50.3863 17.6054 50.2146C16.9533 50.043 16.4643 49.6996 16.3013 49.528C16.3013 49.7855 16.2198 50.1288 16.2198 50.3863C16.2198 50.7297 16.4643 50.9013 16.4643 51.073Z" fill="#33383F"/>
<path fill-rule="evenodd" clip-rule="evenodd" d="M46.3772 44.206C45.8066 44.0344 45.4806 43.9485 45.0731 43.5194C44.7471 43.176 45.0731 43.3477 44.8286 43.2618C44.8286 43.5194 44.7471 43.7769 44.584 44.0344C44.3395 44.7211 43.932 44.8927 45.6436 45.3219C46.3772 45.4936 46.5402 45.5794 46.7847 45.4936C46.8662 45.0644 46.9477 44.8927 46.9477 44.3777C46.9477 44.1202 46.9477 44.206 46.7847 44.1202C46.2957 44.1202 46.6217 44.206 46.3772 44.206Z" fill="#33383F"/>
<path fill-rule="evenodd" clip-rule="evenodd" d="M32.4396 45.6652C32.032 45.236 30.4019 44.0343 29.9129 44.0343C30.6464 45.3219 30.0759 45.236 29.5053 46.4378C29.7499 46.4378 30.3204 46.1803 31.38 47.1245C32.8471 48.5837 33.1731 49.6996 33.7437 50.2146C34.0697 50.4721 34.9663 49.5279 35.6998 48.3262C37.2485 45.236 35.4553 42.7468 34.1512 40.515C33.5807 41.03 33.5807 41.9742 31.6245 41.9742C32.1951 42.2318 33.9882 44.1202 33.9882 44.6352C33.9067 44.1202 33.0101 43.4335 32.6026 43.0043C31.869 42.3176 31.217 41.8026 31.217 41.8884C31.217 43.2618 30.9725 43.6051 30.1574 43.9485C30.5649 44.0343 31.2985 44.6352 31.706 44.8927C32.2766 45.236 32.8471 46.1803 32.4396 45.6652Z" fill="#33383F"/>
<path fill-rule="evenodd" clip-rule="evenodd" d="M34.0697 50.3862C34.0697 50.3862 33.7437 50.5579 33.4992 50.8154C33.2546 51.0729 33.5807 51.588 33.8252 51.7596C34.0697 52.0171 34.3142 52.5322 34.4772 52.8755C34.4772 52.8755 34.8848 53.4764 34.8848 52.1888C34.8033 51.9313 35.2108 52.8755 35.2108 52.8755C35.2108 52.8755 35.5368 53.0472 35.6183 52.8755C35.6998 52.7038 35.6183 52.103 35.4553 51.9313C35.2923 51.7596 35.6998 52.3605 35.6998 52.3605C36.5964 52.7038 36.0259 51.6738 35.7813 51.3304L35.0478 50.8154C35.0478 50.8154 34.8033 50.5579 34.7217 50.4721C34.7217 50.3862 34.5587 50.2146 34.6402 49.9571C35.2108 50.4721 39.0416 53.5622 41.4053 52.0171C43.2799 50.7296 42.7909 51.1588 42.7909 51.1588C42.7909 51.1588 42.5464 51.8455 42.7909 52.3605C43.0354 52.8755 43.3614 52.8755 43.1984 53.3905C43.0354 53.9056 43.5244 53.5622 43.606 53.3047C43.606 53.0472 43.1169 52.2747 43.4429 51.4163C43.932 50.2146 45.6436 47.8111 45.0731 46.5236C44.6655 45.6652 44.3395 45.4935 44.1765 44.3777C44.095 44.0343 44.1765 41.8025 43.5245 42.4034C43.3614 42.4892 43.2799 43.0043 43.3614 43.691C43.3614 44.3777 43.4429 44.8068 43.3614 45.0644C43.2799 45.3219 43.1169 45.4935 42.8724 44.9785C42.6279 44.4635 42.5464 43.9485 42.3834 44.1201C42.2203 44.2918 42.3019 44.2918 42.5464 44.9785C42.7909 45.6652 42.2203 46.3519 42.3834 47.1244C42.6279 47.897 42.9539 47.8111 42.7909 48.7553C42.6279 49.6995 41.9758 50.5579 41.4868 50.6438C40.9978 50.7296 39.4491 50.4721 38.471 49.3562C35.7813 46.3519 35.5368 45.8369 35.2923 47.2103C35.1293 47.4678 35.0478 47.6395 34.8033 47.897L34.4772 48.1545C34.3142 48.412 33.9882 48.6695 33.7437 48.927C33.8252 49.3562 33.9067 49.7854 34.0697 50.3862Z" fill="#33383F"/>
<path fill-rule="evenodd" clip-rule="evenodd" d="M46.2142 48.927C46.2142 48.927 46.1327 48.8412 46.0512 48.7553C45.7251 48.412 45.1546 47.4678 45.0731 47.382C44.9916 47.4678 44.747 47.382 44.6655 47.382C44.747 47.6395 45.8881 49.0129 45.9696 49.2704L45.0731 48.7553C45.3176 49.2704 48.3333 52.0172 48.3333 52.0172C48.3333 51.7596 46.2957 48.3262 46.1327 47.8111C46.1327 48.5837 46.1327 48.4978 46.2142 48.927Z" fill="#33383F"/>
<path d="M140.191 9.95704C141.577 9.95704 142.555 9.09867 142.718 7.72528L141.169 7.46777C141.006 7.98279 140.68 8.32614 140.11 8.32614C139.539 8.32614 139.295 7.98279 139.132 7.46777L137.583 7.72528C137.909 9.09867 138.806 9.95704 140.191 9.95704ZM135.464 20.9442H138.072L141.984 15.1073V20.9442H144.755V10.6437H142.147L138.235 16.4806V10.6437H135.464V20.9442ZM128.536 18.5407C126.987 18.5407 125.927 17.2532 125.927 15.7081C125.927 14.1631 126.987 12.8755 128.536 12.8755C130.084 12.8755 131.144 14.1631 131.144 15.7081C131.144 17.2532 130.084 18.5407 128.536 18.5407ZM128.536 21.1158C131.633 21.1158 133.997 18.7124 133.997 15.7081C133.997 12.7038 131.714 10.3004 128.536 10.3004C125.438 10.3004 123.075 12.7038 123.075 15.7081C123.075 18.7982 125.357 21.1158 128.536 21.1158ZM116.31 20.9442H119.162V13.133H122.178V10.6437H113.294V13.133H116.31V20.9442ZM106.936 18.5407C105.388 18.5407 104.328 17.2532 104.328 15.7081C104.328 14.1631 105.388 12.8755 106.936 12.8755C108.485 12.8755 109.545 14.1631 109.545 15.7081C109.463 17.2532 108.485 18.5407 106.936 18.5407ZM106.936 21.1158C110.034 21.1158 112.397 18.7124 112.397 15.7081C112.397 12.7038 110.115 10.3004 106.936 10.3004C103.839 10.3004 101.476 12.7038 101.476 15.7081C101.476 18.7982 103.758 21.1158 106.936 21.1158ZM91.4503 21.1158C93.4064 21.1158 94.792 19.8283 94.792 13.5622V13.133H97.1557V20.9442H100.008V10.6437H92.1838V12.0171C92.1838 18.2832 91.4503 18.7124 90.6352 18.7124C90.4722 18.7124 90.1462 18.7124 89.9831 18.6266L89.8201 20.8583C90.0646 20.9442 90.7167 21.1158 91.4503 21.1158ZM83.9517 18.5407C82.403 18.5407 81.3435 17.2532 81.3435 15.7081C81.3435 14.1631 82.403 12.8755 83.8702 12.8755C85.4188 12.8755 86.4784 14.1631 86.4784 15.7081C86.5599 17.2532 85.5818 18.5407 83.9517 18.5407ZM83.9517 21.1158C87.0489 21.1158 89.4126 18.7124 89.4126 15.7081C89.4126 12.7038 87.1304 10.3004 83.9517 10.3004C80.8544 10.3004 78.4907 12.7038 78.4907 15.7081C78.4907 18.7982 80.8544 21.1158 83.9517 21.1158ZM73.5188 21.1158C76.0455 21.1158 77.5126 19.7424 77.5126 17.9399C77.5126 16.6523 76.7791 15.8798 75.7195 15.5364C76.6161 15.1073 77.2681 14.4206 77.2681 13.2188C77.2681 11.5879 75.7195 10.3862 73.4373 10.3862C71.4812 10.3862 70.1771 11.1588 69.199 12.103L70.5846 13.8197C71.2366 13.2188 72.2962 12.7897 73.1928 12.7897C74.0079 12.7897 74.4969 13.133 74.4969 13.648C74.4969 14.1631 74.0894 14.5922 73.0298 14.5922H71.9702V16.7382H73.0298C74.1709 16.7382 74.6599 17.0815 74.6599 17.6824C74.6599 18.2832 74.1709 18.7124 73.1113 18.7124C71.8887 18.7124 70.9921 18.1974 70.2586 17.5107L68.7915 19.3991C70.0141 20.4291 71.1551 21.1158 73.5188 21.1158Z" fill="#33383F"/>
<path d="M104.002 49.4421V47.2961H105.877C106.692 47.2961 107.181 47.7253 107.181 48.3262C107.181 49.0129 106.692 49.4421 105.877 49.4421H104.002ZM101.15 51.8455H106.04C108.404 51.8455 109.952 50.6438 109.952 48.4979C109.952 46.2661 108.241 45.1502 105.877 45.1502H103.921V43.9485H109.3V41.5451H101.15V51.8455ZM92.8359 52.0172C94.3845 52.0172 95.3626 51.2446 96.2591 49.4421L100.253 41.5451H97.1557L94.955 46.4378L92.6728 41.5451H89.5756L93.5694 49.1846C93.2434 49.5279 92.9174 49.6137 92.6728 49.6137C92.3468 49.6137 91.9393 49.5279 91.5318 49.2704L90.3907 51.3305C91.1242 51.7597 91.9393 52.0172 92.8359 52.0172ZM80.2024 52.0172C82.1585 52.0172 83.5441 50.7296 83.5441 44.4635V44.0343H85.9078V51.8455H88.7605V41.5451H80.9359V43.0043C80.9359 49.2704 80.2024 49.6996 79.3873 49.6996C79.2243 49.6996 78.8983 49.6996 78.7352 49.6137L78.5722 51.8455C78.7352 51.8455 79.4688 52.0172 80.2024 52.0172ZM69.036 51.8455H71.8887V49.1846L72.9483 47.9828L75.475 51.8455H78.8167L74.8229 45.9228L78.6537 41.4592H75.312L71.8072 45.6652V41.4592H68.9545L69.036 51.8455ZM124.216 36.2232H127.069V28.412H130.084V25.9228H121.2V28.412H124.216V36.2232ZM115.984 36.4807C118.266 36.4807 119.488 35.4506 120.467 34.1631L118.347 32.618C117.777 33.3906 117.125 33.9056 116.065 33.9056C114.68 33.9056 113.62 32.7039 113.62 31.1588C113.62 29.6137 114.598 28.412 116.065 28.412C117.043 28.412 117.695 28.8412 118.266 29.6137L120.304 27.9828C119.407 26.6953 118.103 25.8369 116.065 25.8369C112.968 25.8369 110.686 28.2403 110.686 31.2446C110.767 34.1631 113.131 36.4807 115.984 36.4807ZM101.476 36.2232H109.708V33.8197H104.247V32.1888H109.137V29.9571H104.247V28.3262H109.626V25.9228H101.476V36.2232ZM93.8139 30.0429V28.2403H95.6071C96.4221 28.2403 96.9112 28.5837 96.9112 29.0987C96.9112 29.6996 96.4221 30.0429 95.6071 30.0429H93.8139ZM93.8139 33.9056V32.0172H95.9331C96.9112 32.0172 97.3187 32.3605 97.3187 32.9614C97.3187 33.5622 96.8297 33.9056 95.9331 33.9056H93.8139ZM91.0427 36.2232H96.2591C98.7043 36.2232 100.09 35.1073 100.09 33.3906C100.09 31.9313 99.2749 31.2446 98.0523 30.8155C98.9488 30.3863 99.6009 29.6996 99.6009 28.4979C99.6009 27.7253 99.3564 27.2103 98.9488 26.7811C98.3783 26.1803 97.4817 25.8369 96.1776 25.8369H90.9612V36.2232H91.0427ZM80.0393 36.2232H82.8921V32.2747H86.4784V36.2232H89.3311V25.9228H86.4784V29.7854H82.8921V25.9228H80.0393V36.2232ZM68.9545 36.2232H71.5627L75.475 30.3863V36.2232H78.2462V25.9228H75.638L71.7257 31.7597V25.9228H68.9545V36.2232Z" fill="#33383F"/>
</g>
<defs>
<clipPath id="clip0_1953_18695">
<rect width="145" height="60" fill="white"/>
</clipPath>
</defs>
</svg>
