<svg width="25" height="25" viewBox="0 0 25 25" fill="none" xmlns="http://www.w3.org/2000/svg">
<g clip-path="url(#clip0_1709_99)">
<path d="M7.41945 13.9919C7.76626 13.594 7.48375 12.9729 6.95594 12.9729H5.37568C5.36539 12.8165 5.35963 12.6589 5.35963 12.5C5.35963 8.56276 8.56278 5.35961 12.5 5.35961C14.3921 5.35961 16.1144 6.09959 17.3934 7.30502L19.6217 4.69818C17.6711 2.91376 15.1608 1.93634 12.5 1.93634C9.67836 1.93634 7.0256 3.03518 5.03038 5.03036C3.03521 7.02558 1.93636 9.67833 1.93636 12.5C1.93636 12.6582 1.94032 12.8158 1.94719 12.9728H0.616135C0.0883265 12.9728 -0.194238 13.594 0.152626 13.9918L3.15532 17.4361L3.78601 18.1595L6.05043 15.5621L7.41945 13.9919Z" fill="#6F767E"/>
<path d="M24.8472 11.9824L22.6076 9.41344L21.2138 7.8147L19.2238 10.0973L17.5804 11.9824C17.2336 12.3802 17.5161 13.0014 18.0439 13.0014H19.6223C19.3641 16.7056 16.2684 19.6404 12.4998 19.6404C10.8547 19.6404 9.338 19.0809 8.12934 18.1426L5.90088 20.7496C7.76775 22.2488 10.071 23.0637 12.4999 23.0637C15.3215 23.0637 17.9743 21.9649 19.9695 19.9697C21.8461 18.0931 22.9294 15.6348 23.0516 13.0015H24.3837C24.9115 13.0014 25.194 12.3802 24.8472 11.9824Z" fill="#6F767E"/>
</g>
<defs>
<clipPath id="clip0_1709_99">
<rect width="25" height="25" fill="white"/>
</clipPath>
</defs>
</svg>
