<svg width="19" height="16" viewBox="0 0 19 16" fill="none" xmlns="http://www.w3.org/2000/svg">
<path d="M5.41039 6.5234C5.01049 6.90432 4.9951 7.5373 5.37601 7.9372C5.75693 8.3371 6.38991 8.35249 6.78981 7.97157L5.41039 6.5234ZM10.0501 3.48499L10.7398 2.7609C10.3536 2.39301 9.74661 2.39301 9.36039 2.7609L10.0501 3.48499ZM13.3104 7.97157C13.7103 8.35249 14.3433 8.3371 14.7242 7.9372C15.1051 7.5373 15.0897 6.90432 14.6898 6.5234L13.3104 7.97157ZM6.78981 7.97157L10.7398 4.20907L9.36039 2.7609L5.41039 6.5234L6.78981 7.97157ZM9.36039 4.20907L13.3104 7.97157L14.6898 6.5234L10.7398 2.7609L9.36039 4.20907Z" fill="#32CC94"/>
<path d="M10.05 12.515V3.48499" stroke="#32CC94" stroke-width="2" stroke-linecap="round"/>
</svg>
