<svg width="25" height="25" viewBox="0 0 25 25" fill="none" xmlns="http://www.w3.org/2000/svg">
<g clip-path="url(#clip0_1672_35757)">
<path d="M13.8022 18.75H11.198C10.4803 18.75 9.89593 18.1656 9.89593 17.4479V11.4583H7.03135C6.34697 11.4583 5.99176 10.6344 6.46572 10.1375L11.9345 4.40831C12.2293 4.09998 12.7709 4.09998 13.0657 4.40831L18.5345 10.1375C19.0084 10.6344 18.6532 11.4583 17.9688 11.4583H15.1043V17.4479C15.1043 18.1656 14.5199 18.75 13.8022 18.75Z" fill="#6F767E"/>
<path d="M21.875 25H3.125C1.40208 25 0 23.5979 0 21.875V16.6666C0 14.9437 1.40208 13.5416 3.125 13.5416H4.6875C5.2625 13.5416 5.72917 14.0083 5.72917 14.5833C5.72917 15.1583 5.2625 15.625 4.6875 15.625H3.125C2.55104 15.625 2.08333 16.0927 2.08333 16.6666V21.875C2.08333 22.4489 2.55104 22.9166 3.125 22.9166H21.875C22.449 22.9166 22.9167 22.4489 22.9167 21.875V16.6666C22.9167 16.0927 22.449 15.625 21.875 15.625H20.3125C19.7375 15.625 19.2708 15.1583 19.2708 14.5833C19.2708 14.0083 19.7375 13.5416 20.3125 13.5416H21.875C23.5979 13.5416 25 14.9437 25 16.6666V21.875C25 23.5979 23.5979 25 21.875 25Z" fill="#6F767E"/>
</g>
<defs>
<clipPath id="clip0_1672_35757">
<rect width="25" height="25" fill="white"/>
</clipPath>
</defs>
</svg>
